# MagicaVoxel @ Ephtracy

# group
o 

# material
mtllib Monster3.mtl
usemtl palette

# normals
vn -1 0 0
vn 1 0 0
vn 0 0 1
vn 0 0 -1
vn 0 -1 0
vn 0 1 0

# texcoords
vt 0.841797 0.5
vt 0.931641 0.5
vt 0.994141 0.5

# verts
v -0.7 2 0.5
v -0.7 2 -0.1
v -0.7 2.4 0.5
v -0.7 2.4 -0.1
v -0.4 0.6 0.4
v -0.4 0.6 -0.1
v -0.4 1.5 0.4
v -0.4 1.5 -0.1
v -0.4 2 0.4
v -0.4 2 -0.1
v -0.3 2.4 0.4
v -0.3 2.4 -0.1
v -0.3 2.7 0.5
v -0.3 2.7 0.4
v -0.3 2.8 0.5
v -0.3 2.8 0.4
v -0.3 2.9 0.4
v -0.3 2.9 -0.1
v 0.3 2.7 0.5
v 0.3 2.7 0.4
v 0.3 2.8 0.5
v 0.3 2.8 0.4
v 0.6 2 0.5
v 0.6 2 0.4
v 0.6 2.4 0.5
v 0.6 2.4 0.4
v -0.5 2 0.5
v -0.5 2 0.4
v -0.5 2.4 0.5
v -0.5 2.4 0.4
v -0.2 2.7 0.5
v -0.2 2.7 0.4
v -0.2 2.8 0.5
v -0.2 2.8 0.4
v 0.4 2.4 0.4
v 0.4 2.4 -0.1
v 0.4 2.7 0.5
v 0.4 2.7 0.4
v 0.4 2.8 0.5
v 0.4 2.8 0.4
v 0.4 2.9 0.4
v 0.4 2.9 -0.1
v 0.5 0.6 0.4
v 0.5 0.6 -0.1
v 0.5 1.5 0.4
v 0.5 1.5 -0.1
v 0.5 2 0.4
v 0.5 2 -0.1
v 0.8 2 0.5
v 0.8 2 -0.1
v 0.8 2.4 0.5
v 0.8 2.4 -0.1
v -0.7 2 0.5
v -0.7 2.4 0.5
v -0.5 2 0.5
v -0.5 2.4 0.5
v -0.3 2.7 0.5
v -0.3 2.8 0.5
v -0.2 2.7 0.5
v -0.2 2.8 0.5
v 0.3 2.7 0.5
v 0.3 2.8 0.5
v 0.4 2.7 0.5
v 0.4 2.8 0.5
v 0.6 2 0.5
v 0.6 2.4 0.5
v 0.8 2 0.5
v 0.8 2.4 0.5
v -0.5 2 0.4
v -0.5 2.4 0.4
v -0.4 0.6 0.4
v -0.4 1.5 0.4
v -0.4 2 0.4
v -0.4 2.4 0.4
v -0.3 2.4 0.4
v -0.3 2.7 0.4
v -0.3 2.8 0.4
v -0.3 2.9 0.4
v -0.2 2.7 0.4
v -0.2 2.8 0.4
v 0.3 2.7 0.4
v 0.3 2.8 0.4
v 0.4 2.4 0.4
v 0.4 2.7 0.4
v 0.4 2.8 0.4
v 0.4 2.9 0.4
v 0.5 0.6 0.4
v 0.5 1.5 0.4
v 0.5 2 0.4
v 0.5 2.4 0.4
v 0.6 2 0.4
v 0.6 2.4 0.4
v -0.7 2 -0.1
v -0.7 2.4 -0.1
v -0.4 0.6 -0.1
v -0.4 1.5 -0.1
v -0.4 2 -0.1
v -0.4 2.4 -0.1
v -0.3 2.4 -0.1
v -0.3 2.9 -0.1
v 0.4 2.4 -0.1
v 0.4 2.9 -0.1
v 0.5 0.6 -0.1
v 0.5 1.5 -0.1
v 0.5 2 -0.1
v 0.5 2.4 -0.1
v 0.8 2 -0.1
v 0.8 2.4 -0.1
v -0.4 0.6 0.4
v 0.5 0.6 0.4
v -0.4 0.6 -0.1
v 0.5 0.6 -0.1
v -0.7 2 0.5
v -0.5 2 0.5
v 0.6 2 0.5
v 0.8 2 0.5
v -0.5 2 0.4
v -0.4 2 0.4
v 0.5 2 0.4
v 0.6 2 0.4
v -0.7 2 -0.1
v -0.4 2 -0.1
v 0.5 2 -0.1
v 0.8 2 -0.1
v -0.3 2.7 0.5
v -0.2 2.7 0.5
v 0.3 2.7 0.5
v 0.4 2.7 0.5
v -0.3 2.7 0.4
v -0.2 2.7 0.4
v 0.3 2.7 0.4
v 0.4 2.7 0.4
v -0.7 2.4 0.5
v -0.5 2.4 0.5
v 0.6 2.4 0.5
v 0.8 2.4 0.5
v -0.5 2.4 0.4
v -0.4 2.4 0.4
v -0.3 2.4 0.4
v 0.4 2.4 0.4
v 0.5 2.4 0.4
v 0.6 2.4 0.4
v -0.7 2.4 -0.1
v -0.4 2.4 -0.1
v -0.3 2.4 -0.1
v 0.4 2.4 -0.1
v 0.5 2.4 -0.1
v 0.8 2.4 -0.1
v -0.3 2.8 0.5
v -0.2 2.8 0.5
v 0.3 2.8 0.5
v 0.4 2.8 0.5
v -0.3 2.8 0.4
v -0.2 2.8 0.4
v 0.3 2.8 0.4
v 0.4 2.8 0.4
v -0.3 2.9 0.4
v 0.4 2.9 0.4
v -0.3 2.9 -0.1
v 0.4 2.9 -0.1

# faces
f 3/2/1 2/2/1 1/2/1
f 4/2/1 2/2/1 3/2/1
f 7/3/1 6/3/1 5/3/1
f 8/3/1 6/3/1 7/3/1
f 9/1/1 8/1/1 7/1/1
f 10/1/1 8/1/1 9/1/1
f 14/2/1 12/2/1 11/2/1
f 15/3/1 14/3/1 13/3/1
f 16/2/1 12/2/1 14/2/1
f 16/3/1 14/3/1 15/3/1
f 17/2/1 12/2/1 16/2/1
f 18/2/1 12/2/1 17/2/1
f 21/3/1 20/3/1 19/3/1
f 22/3/1 20/3/1 21/3/1
f 25/2/1 24/2/1 23/2/1
f 26/2/1 24/2/1 25/2/1
f 27/2/2 28/2/2 29/2/2
f 29/2/2 28/2/2 30/2/2
f 31/3/2 32/3/2 33/3/2
f 33/3/2 32/3/2 34/3/2
f 35/2/2 36/2/2 38/2/2
f 37/3/2 38/3/2 39/3/2
f 38/2/2 36/2/2 40/2/2
f 39/3/2 38/3/2 40/3/2
f 40/2/2 36/2/2 41/2/2
f 41/2/2 36/2/2 42/2/2
f 43/3/2 44/3/2 45/3/2
f 45/3/2 44/3/2 46/3/2
f 45/1/2 46/1/2 47/1/2
f 47/1/2 46/1/2 48/1/2
f 49/2/2 50/2/2 51/2/2
f 51/2/2 50/2/2 52/2/2
f 55/2/3 54/2/3 53/2/3
f 56/2/3 54/2/3 55/2/3
f 59/3/3 58/3/3 57/3/3
f 60/3/3 58/3/3 59/3/3
f 63/3/3 62/3/3 61/3/3
f 64/3/3 62/3/3 63/3/3
f 67/2/3 66/2/3 65/2/3
f 68/2/3 66/2/3 67/2/3
f 73/2/3 70/2/3 69/2/3
f 74/2/3 70/2/3 73/2/3
f 75/1/3 73/1/3 72/1/3
f 75/1/3 74/1/3 73/1/3
f 79/2/3 76/2/3 75/2/3
f 80/2/3 78/2/3 77/2/3
f 81/2/3 79/2/3 75/2/3
f 81/2/3 80/2/3 79/2/3
f 82/2/3 78/2/3 80/2/3
f 82/2/3 80/2/3 81/2/3
f 83/1/3 75/1/3 72/1/3
f 83/2/3 81/2/3 75/2/3
f 84/2/3 81/2/3 83/2/3
f 85/2/3 78/2/3 82/2/3
f 86/2/3 78/2/3 85/2/3
f 87/3/3 72/3/3 71/3/3
f 88/1/3 83/1/3 72/1/3
f 88/3/3 72/3/3 87/3/3
f 89/1/3 83/1/3 88/1/3
f 90/1/3 83/1/3 89/1/3
f 91/2/3 90/2/3 89/2/3
f 92/2/3 90/2/3 91/2/3
f 93/2/4 94/2/4 97/2/4
f 97/2/4 94/2/4 98/2/4
f 96/1/4 97/1/4 99/1/4
f 97/1/4 98/1/4 99/1/4
f 96/1/4 99/1/4 101/1/4
f 99/2/4 100/2/4 101/2/4
f 101/2/4 100/2/4 102/2/4
f 95/3/4 96/3/4 103/3/4
f 96/1/4 101/1/4 104/1/4
f 103/3/4 96/3/4 104/3/4
f 104/1/4 101/1/4 105/1/4
f 105/1/4 101/1/4 106/1/4
f 105/2/4 106/2/4 107/2/4
f 107/2/4 106/2/4 108/2/4
f 111/3/5 110/3/5 109/3/5
f 112/3/5 110/3/5 111/3/5
f 117/2/5 114/2/5 113/2/5
f 120/2/5 116/2/5 115/2/5
f 121/2/5 118/2/5 117/2/5
f 121/2/5 117/2/5 113/2/5
f 122/2/5 118/2/5 121/2/5
f 123/2/5 120/2/5 119/2/5
f 124/2/5 116/2/5 120/2/5
f 124/2/5 120/2/5 123/2/5
f 129/3/5 126/3/5 125/3/5
f 130/3/5 126/3/5 129/3/5
f 131/3/5 128/3/5 127/3/5
f 132/3/5 128/3/5 131/3/5
f 133/2/6 134/2/6 137/2/6
f 135/2/6 136/2/6 142/2/6
f 133/2/6 137/2/6 143/2/6
f 137/2/6 138/2/6 143/2/6
f 138/1/6 139/1/6 144/1/6
f 143/2/6 138/2/6 144/2/6
f 144/1/6 139/1/6 145/1/6
f 140/1/6 141/1/6 146/1/6
f 141/2/6 142/2/6 147/2/6
f 146/1/6 141/1/6 147/1/6
f 142/2/6 136/2/6 148/2/6
f 147/2/6 142/2/6 148/2/6
f 149/3/6 150/3/6 153/3/6
f 153/3/6 150/3/6 154/3/6
f 151/3/6 152/3/6 155/3/6
f 155/3/6 152/3/6 156/3/6
f 157/2/6 158/2/6 159/2/6
f 159/2/6 158/2/6 160/2/6
