# MagicaVoxel @ Ephtracy

# group
o 

# material
mtllib Monster2.mtl
usemtl palette

# normals
vn -1 0 0
vn 1 0 0
vn 0 0 1
vn 0 0 -1
vn 0 -1 0
vn 0 1 0

# texcoords
vt 0.841797 0.5
vt 0.958984 0.5
vt 0.994141 0.5

# verts
v -0.7 2 0.5
v -0.7 2 -0.1
v -0.7 2.4 0.5
v -0.7 2.4 -0.1
v -0.4 0.9 0.4
v -0.4 0.9 -0.1
v -0.4 1.4 0.4
v -0.4 1.4 -0.1
v -0.4 2 0.4
v -0.4 2 -0.1
v -0.3 2.4 0.4
v -0.3 2.4 -0.1
v -0.3 2.7 0.5
v -0.3 2.7 0.4
v -0.3 2.8 0.5
v -0.3 2.8 0.4
v -0.3 2.9 0.4
v -0.3 2.9 -0.1
v 0.1 0.9 0.4
v 0.1 0.9 -0.1
v 0.1 1.4 0.4
v 0.1 1.4 -0.1
v 0.3 2.7 0.5
v 0.3 2.7 0.4
v 0.3 2.8 0.5
v 0.3 2.8 0.4
v 0.6 2 0.5
v 0.6 2 0.4
v 0.6 2.4 0.5
v 0.6 2.4 0.4
v -0.5 2 0.5
v -0.5 2 0.4
v -0.5 2.4 0.5
v -0.5 2.4 0.4
v -0.2 2.7 0.5
v -0.2 2.7 0.4
v -0.2 2.8 0.5
v -0.2 2.8 0.4
v 5.96046e-08 0.9 0.4
v 5.96046e-08 0.9 -0.1
v 5.96046e-08 1.4 0.4
v 5.96046e-08 1.4 -0.1
v 0.4 2.4 0.4
v 0.4 2.4 -0.1
v 0.4 2.7 0.5
v 0.4 2.7 0.4
v 0.4 2.8 0.5
v 0.4 2.8 0.4
v 0.4 2.9 0.4
v 0.4 2.9 -0.1
v 0.5 0.9 0.4
v 0.5 0.9 -0.1
v 0.5 1.4 0.4
v 0.5 1.4 -0.1
v 0.5 2 0.4
v 0.5 2 -0.1
v 0.8 2 0.5
v 0.8 2 -0.1
v 0.8 2.4 0.5
v 0.8 2.4 -0.1
v -0.7 2 0.5
v -0.7 2.4 0.5
v -0.5 2 0.5
v -0.5 2.4 0.5
v -0.3 2.7 0.5
v -0.3 2.8 0.5
v -0.2 2.7 0.5
v -0.2 2.8 0.5
v 0.3 2.7 0.5
v 0.3 2.8 0.5
v 0.4 2.7 0.5
v 0.4 2.8 0.5
v 0.6 2 0.5
v 0.6 2.4 0.5
v 0.8 2 0.5
v 0.8 2.4 0.5
v -0.5 2 0.4
v -0.5 2.4 0.4
v -0.4 0.9 0.4
v -0.4 1.4 0.4
v -0.4 2 0.4
v -0.4 2.4 0.4
v -0.3 2.4 0.4
v -0.3 2.7 0.4
v -0.3 2.8 0.4
v -0.3 2.9 0.4
v -0.2 2.7 0.4
v -0.2 2.8 0.4
v 5.96046e-08 0.9 0.4
v 5.96046e-08 1.4 0.4
v 0.1 0.9 0.4
v 0.1 1.4 0.4
v 0.3 2.7 0.4
v 0.3 2.8 0.4
v 0.4 2.4 0.4
v 0.4 2.7 0.4
v 0.4 2.8 0.4
v 0.4 2.9 0.4
v 0.5 0.9 0.4
v 0.5 1.4 0.4
v 0.5 2 0.4
v 0.5 2.4 0.4
v 0.6 2 0.4
v 0.6 2.4 0.4
v -0.7 2 -0.1
v -0.7 2.4 -0.1
v -0.4 0.9 -0.1
v -0.4 1.4 -0.1
v -0.4 2 -0.1
v -0.4 2.4 -0.1
v -0.3 2.4 -0.1
v -0.3 2.9 -0.1
v 5.96046e-08 0.9 -0.1
v 5.96046e-08 1.4 -0.1
v 0.1 0.9 -0.1
v 0.1 1.4 -0.1
v 0.4 2.4 -0.1
v 0.4 2.9 -0.1
v 0.5 0.9 -0.1
v 0.5 1.4 -0.1
v 0.5 2 -0.1
v 0.5 2.4 -0.1
v 0.8 2 -0.1
v 0.8 2.4 -0.1
v -0.4 0.9 0.4
v 5.96046e-08 0.9 0.4
v 0.1 0.9 0.4
v 0.5 0.9 0.4
v -0.4 0.9 -0.1
v 5.96046e-08 0.9 -0.1
v 0.1 0.9 -0.1
v 0.5 0.9 -0.1
v 5.96046e-08 1.4 0.4
v 0.1 1.4 0.4
v 5.96046e-08 1.4 -0.1
v 0.1 1.4 -0.1
v -0.7 2 0.5
v -0.5 2 0.5
v 0.6 2 0.5
v 0.8 2 0.5
v -0.5 2 0.4
v -0.4 2 0.4
v 0.5 2 0.4
v 0.6 2 0.4
v -0.7 2 -0.1
v -0.4 2 -0.1
v 0.5 2 -0.1
v 0.8 2 -0.1
v -0.3 2.7 0.5
v -0.2 2.7 0.5
v 0.3 2.7 0.5
v 0.4 2.7 0.5
v -0.3 2.7 0.4
v -0.2 2.7 0.4
v 0.3 2.7 0.4
v 0.4 2.7 0.4
v -0.7 2.4 0.5
v -0.5 2.4 0.5
v 0.6 2.4 0.5
v 0.8 2.4 0.5
v -0.5 2.4 0.4
v -0.4 2.4 0.4
v -0.3 2.4 0.4
v 0.4 2.4 0.4
v 0.5 2.4 0.4
v 0.6 2.4 0.4
v -0.7 2.4 -0.1
v -0.4 2.4 -0.1
v -0.3 2.4 -0.1
v 0.4 2.4 -0.1
v 0.5 2.4 -0.1
v 0.8 2.4 -0.1
v -0.3 2.8 0.5
v -0.2 2.8 0.5
v 0.3 2.8 0.5
v 0.4 2.8 0.5
v -0.3 2.8 0.4
v -0.2 2.8 0.4
v 0.3 2.8 0.4
v 0.4 2.8 0.4
v -0.3 2.9 0.4
v 0.4 2.9 0.4
v -0.3 2.9 -0.1
v 0.4 2.9 -0.1

# faces
f 3/2/1 2/2/1 1/2/1
f 4/2/1 2/2/1 3/2/1
f 7/2/1 6/2/1 5/2/1
f 8/2/1 6/2/1 7/2/1
f 9/1/1 8/1/1 7/1/1
f 10/1/1 8/1/1 9/1/1
f 14/2/1 12/2/1 11/2/1
f 15/3/1 14/3/1 13/3/1
f 16/2/1 12/2/1 14/2/1
f 16/3/1 14/3/1 15/3/1
f 17/2/1 12/2/1 16/2/1
f 18/2/1 12/2/1 17/2/1
f 21/2/1 20/2/1 19/2/1
f 22/2/1 20/2/1 21/2/1
f 25/3/1 24/3/1 23/3/1
f 26/3/1 24/3/1 25/3/1
f 29/2/1 28/2/1 27/2/1
f 30/2/1 28/2/1 29/2/1
f 31/2/2 32/2/2 33/2/2
f 33/2/2 32/2/2 34/2/2
f 35/3/2 36/3/2 37/3/2
f 37/3/2 36/3/2 38/3/2
f 39/2/2 40/2/2 41/2/2
f 41/2/2 40/2/2 42/2/2
f 43/2/2 44/2/2 46/2/2
f 45/3/2 46/3/2 47/3/2
f 46/2/2 44/2/2 48/2/2
f 47/3/2 46/3/2 48/3/2
f 48/2/2 44/2/2 49/2/2
f 49/2/2 44/2/2 50/2/2
f 51/2/2 52/2/2 53/2/2
f 53/2/2 52/2/2 54/2/2
f 53/1/2 54/1/2 55/1/2
f 55/1/2 54/1/2 56/1/2
f 57/2/2 58/2/2 59/2/2
f 59/2/2 58/2/2 60/2/2
f 63/2/3 62/2/3 61/2/3
f 64/2/3 62/2/3 63/2/3
f 67/3/3 66/3/3 65/3/3
f 68/3/3 66/3/3 67/3/3
f 71/3/3 70/3/3 69/3/3
f 72/3/3 70/3/3 71/3/3
f 75/2/3 74/2/3 73/2/3
f 76/2/3 74/2/3 75/2/3
f 81/2/3 78/2/3 77/2/3
f 82/2/3 78/2/3 81/2/3
f 83/1/3 81/1/3 80/1/3
f 83/1/3 82/1/3 81/1/3
f 87/2/3 84/2/3 83/2/3
f 88/2/3 86/2/3 85/2/3
f 89/2/3 80/2/3 79/2/3
f 90/1/3 83/1/3 80/1/3
f 90/2/3 80/2/3 89/2/3
f 92/1/3 83/1/3 90/1/3
f 93/2/3 88/2/3 87/2/3
f 93/2/3 87/2/3 83/2/3
f 94/2/3 86/2/3 88/2/3
f 94/2/3 88/2/3 93/2/3
f 95/1/3 83/1/3 92/1/3
f 95/2/3 93/2/3 83/2/3
f 96/2/3 93/2/3 95/2/3
f 97/2/3 86/2/3 94/2/3
f 98/2/3 86/2/3 97/2/3
f 99/2/3 92/2/3 91/2/3
f 100/1/3 95/1/3 92/1/3
f 100/2/3 92/2/3 99/2/3
f 101/1/3 95/1/3 100/1/3
f 102/1/3 95/1/3 101/1/3
f 103/2/3 102/2/3 101/2/3
f 104/2/3 102/2/3 103/2/3
f 105/2/4 106/2/4 109/2/4
f 109/2/4 106/2/4 110/2/4
f 108/1/4 109/1/4 111/1/4
f 109/1/4 110/1/4 111/1/4
f 107/2/4 108/2/4 113/2/4
f 108/1/4 111/1/4 114/1/4
f 113/2/4 108/2/4 114/2/4
f 114/1/4 111/1/4 116/1/4
f 111/2/4 112/2/4 117/2/4
f 116/1/4 111/1/4 117/1/4
f 117/2/4 112/2/4 118/2/4
f 115/2/4 116/2/4 119/2/4
f 116/1/4 117/1/4 120/1/4
f 119/2/4 116/2/4 120/2/4
f 120/1/4 117/1/4 121/1/4
f 121/1/4 117/1/4 122/1/4
f 121/2/4 122/2/4 123/2/4
f 123/2/4 122/2/4 124/2/4
f 129/2/5 126/2/5 125/2/5
f 130/2/5 126/2/5 129/2/5
f 131/2/5 128/2/5 127/2/5
f 132/2/5 128/2/5 131/2/5
f 135/1/5 134/1/5 133/1/5
f 136/1/5 134/1/5 135/1/5
f 141/2/5 138/2/5 137/2/5
f 144/2/5 140/2/5 139/2/5
f 145/2/5 142/2/5 141/2/5
f 145/2/5 141/2/5 137/2/5
f 146/2/5 142/2/5 145/2/5
f 147/2/5 144/2/5 143/2/5
f 148/2/5 140/2/5 144/2/5
f 148/2/5 144/2/5 147/2/5
f 153/3/5 150/3/5 149/3/5
f 154/3/5 150/3/5 153/3/5
f 155/3/5 152/3/5 151/3/5
f 156/3/5 152/3/5 155/3/5
f 157/2/6 158/2/6 161/2/6
f 159/2/6 160/2/6 166/2/6
f 157/2/6 161/2/6 167/2/6
f 161/2/6 162/2/6 167/2/6
f 162/1/6 163/1/6 168/1/6
f 167/2/6 162/2/6 168/2/6
f 168/1/6 163/1/6 169/1/6
f 164/1/6 165/1/6 170/1/6
f 165/2/6 166/2/6 171/2/6
f 170/1/6 165/1/6 171/1/6
f 166/2/6 160/2/6 172/2/6
f 171/2/6 166/2/6 172/2/6
f 173/3/6 174/3/6 177/3/6
f 177/3/6 174/3/6 178/3/6
f 175/3/6 176/3/6 179/3/6
f 179/3/6 176/3/6 180/3/6
f 181/2/6 182/2/6 183/2/6
f 183/2/6 182/2/6 184/2/6
