# MagicaVoxel @ Ephtracy

# group
o 

# material
mtllib Cabinet.mtl
usemtl palette

# normals
vn -1 0 0
vn 1 0 0
vn 0 0 1
vn 0 0 -1
vn 0 -1 0
vn 0 1 0

# texcoords
vt 0.962891 0.5
vt 0.970703 0.5
vt 0.978516 0.5
vt 0.990234 0.5

# verts
v -0.7 0 0.7
v -0.7 0 -0.5
v -0.7 3.5 0.7
v -0.7 3.5 -0.5
v -0.6 0.6 0.8
v -0.6 0.6 0.7
v -0.6 3.4 0.8
v -0.6 3.4 0.7
v 0.3 1.9 0.7
v 0.3 1.9 0.6
v 0.3 2.4 0.7
v 0.3 2.4 0.6
v 0.3 2.9 0.8
v 0.3 2.9 0.7
v 0.3 3 0.8
v 0.3 3 0.7
v 0.4 1.9 0.8
v 0.4 1.9 0.7
v 0.4 2.4 0.8
v 0.4 2.4 0.7
v 0.6 0.6 0.8
v 0.6 0.6 0.7
v 0.6 3.4 0.8
v 0.6 3.4 0.7
v 0.9 1.9 0.8
v 0.9 1.9 0.7
v 0.9 1.9 0.6
v 0.9 2.4 0.8
v 0.9 2.4 0.7
v 0.9 2.4 0.6
v 1.3 2.9 0.8
v 1.3 2.9 0.7
v 1.3 3 0.8
v 1.3 3 0.7
v -0.2 2.9 0.8
v -0.2 2.9 0.7
v -0.2 3 0.8
v -0.2 3 0.7
v 0.2 1.9 0.8
v 0.2 1.9 0.7
v 0.2 1.9 0.6
v 0.2 2.4 0.8
v 0.2 2.4 0.7
v 0.2 2.4 0.6
v 0.5 0.6 0.8
v 0.5 0.6 0.7
v 0.5 3.4 0.8
v 0.5 3.4 0.7
v 0.7 1.9 0.8
v 0.7 1.9 0.7
v 0.7 2.4 0.8
v 0.7 2.4 0.7
v 0.8 1.9 0.7
v 0.8 1.9 0.6
v 0.8 2.4 0.7
v 0.8 2.4 0.6
v 0.8 2.9 0.8
v 0.8 2.9 0.7
v 0.8 3 0.8
v 0.8 3 0.7
v 1.7 0.6 0.8
v 1.7 0.6 0.7
v 1.7 3.4 0.8
v 1.7 3.4 0.7
v 1.8 0 0.7
v 1.8 0 -0.5
v 1.8 3.5 0.7
v 1.8 3.5 -0.5
v -0.6 0.6 0.8
v -0.6 3.4 0.8
v -0.2 2.9 0.8
v -0.2 3 0.8
v 0.2 1.9 0.8
v 0.2 2.4 0.8
v 0.3 2.9 0.8
v 0.3 3 0.8
v 0.4 1.9 0.8
v 0.4 2.4 0.8
v 0.5 0.6 0.8
v 0.5 3.4 0.8
v 0.6 0.6 0.8
v 0.6 3.4 0.8
v 0.7 1.9 0.8
v 0.7 2.4 0.8
v 0.8 2.9 0.8
v 0.8 3 0.8
v 0.9 1.9 0.8
v 0.9 2.4 0.8
v 1.3 2.9 0.8
v 1.3 3 0.8
v 1.7 0.6 0.8
v 1.7 3.4 0.8
v -0.7 0 0.7
v -0.7 3.5 0.7
v -0.6 0.6 0.7
v -0.6 3.4 0.7
v -0.2 2.9 0.7
v -0.2 3 0.7
v 0.3 1.9 0.7
v 0.3 2.4 0.7
v 0.3 2.9 0.7
v 0.3 3 0.7
v 0.4 1.9 0.7
v 0.4 2.4 0.7
v 0.5 0.6 0.7
v 0.5 3.4 0.7
v 0.6 0.6 0.7
v 0.6 3.4 0.7
v 0.7 1.9 0.7
v 0.7 2.4 0.7
v 0.8 1.9 0.7
v 0.8 2.4 0.7
v 0.8 2.9 0.7
v 0.8 3 0.7
v 1.3 2.9 0.7
v 1.3 3 0.7
v 1.7 0.6 0.7
v 1.7 3.4 0.7
v 1.8 0 0.7
v 1.8 3.5 0.7
v 0.2 1.9 0.6
v 0.2 2.4 0.6
v 0.3 1.9 0.6
v 0.3 2.4 0.6
v 0.8 1.9 0.6
v 0.8 2.4 0.6
v 0.9 1.9 0.6
v 0.9 2.4 0.6
v -0.7 0 -0.5
v -0.7 3.5 -0.5
v 1.8 0 -0.5
v 1.8 3.5 -0.5
v -0.7 0 0.7
v 1.8 0 0.7
v -0.7 0 -0.5
v 1.8 0 -0.5
v -0.6 0.6 0.8
v 0.5 0.6 0.8
v 0.6 0.6 0.8
v 1.7 0.6 0.8
v -0.6 0.6 0.7
v 0.5 0.6 0.7
v 0.6 0.6 0.7
v 1.7 0.6 0.7
v 0.2 2.4 0.8
v 0.4 2.4 0.8
v 0.7 2.4 0.8
v 0.9 2.4 0.8
v 0.2 2.4 0.7
v 0.3 2.4 0.7
v 0.4 2.4 0.7
v 0.7 2.4 0.7
v 0.8 2.4 0.7
v 0.9 2.4 0.7
v 0.2 2.4 0.6
v 0.3 2.4 0.6
v 0.8 2.4 0.6
v 0.9 2.4 0.6
v -0.2 3 0.8
v 0.3 3 0.8
v 0.8 3 0.8
v 1.3 3 0.8
v -0.2 3 0.7
v 0.3 3 0.7
v 0.8 3 0.7
v 1.3 3 0.7
v 0.2 1.9 0.8
v 0.4 1.9 0.8
v 0.7 1.9 0.8
v 0.9 1.9 0.8
v 0.2 1.9 0.7
v 0.3 1.9 0.7
v 0.4 1.9 0.7
v 0.7 1.9 0.7
v 0.8 1.9 0.7
v 0.9 1.9 0.7
v 0.2 1.9 0.6
v 0.3 1.9 0.6
v 0.8 1.9 0.6
v 0.9 1.9 0.6
v -0.2 2.9 0.8
v 0.3 2.9 0.8
v 0.8 2.9 0.8
v 1.3 2.9 0.8
v -0.2 2.9 0.7
v 0.3 2.9 0.7
v 0.8 2.9 0.7
v 1.3 2.9 0.7
v -0.6 3.4 0.8
v 0.5 3.4 0.8
v 0.6 3.4 0.8
v 1.7 3.4 0.8
v -0.6 3.4 0.7
v 0.5 3.4 0.7
v 0.6 3.4 0.7
v 1.7 3.4 0.7
v -0.7 3.5 0.7
v 1.8 3.5 0.7
v -0.7 3.5 -0.5
v 1.8 3.5 -0.5

# faces
f 3/3/1 2/3/1 1/3/1
f 4/3/1 2/3/1 3/3/1
f 7/2/1 6/2/1 5/2/1
f 8/2/1 6/2/1 7/2/1
f 11/4/1 10/4/1 9/4/1
f 12/4/1 10/4/1 11/4/1
f 15/2/1 14/2/1 13/2/1
f 16/2/1 14/2/1 15/2/1
f 19/2/1 18/2/1 17/2/1
f 20/2/1 18/2/1 19/2/1
f 23/2/1 22/2/1 21/2/1
f 24/2/1 22/2/1 23/2/1
f 28/2/1 26/2/1 25/2/1
f 29/4/1 27/4/1 26/4/1
f 29/2/1 26/2/1 28/2/1
f 30/4/1 27/4/1 29/4/1
f 33/2/1 32/2/1 31/2/1
f 34/2/1 32/2/1 33/2/1
f 35/2/2 36/2/2 37/2/2
f 37/2/2 36/2/2 38/2/2
f 39/2/2 40/2/2 42/2/2
f 40/4/2 41/4/2 43/4/2
f 42/2/2 40/2/2 43/2/2
f 43/4/2 41/4/2 44/4/2
f 45/2/2 46/2/2 47/2/2
f 47/2/2 46/2/2 48/2/2
f 49/2/2 50/2/2 51/2/2
f 51/2/2 50/2/2 52/2/2
f 53/4/2 54/4/2 55/4/2
f 55/4/2 54/4/2 56/4/2
f 57/2/2 58/2/2 59/2/2
f 59/2/2 58/2/2 60/2/2
f 61/2/2 62/2/2 63/2/2
f 63/2/2 62/2/2 64/2/2
f 65/3/2 66/3/2 67/3/2
f 67/3/2 66/3/2 68/3/2
f 71/2/3 70/2/3 69/2/3
f 72/2/3 70/2/3 71/2/3
f 73/2/3 71/2/3 69/2/3
f 74/2/3 71/2/3 73/2/3
f 75/2/3 71/2/3 74/2/3
f 76/2/3 70/2/3 72/2/3
f 77/2/3 73/2/3 69/2/3
f 78/2/3 75/2/3 74/2/3
f 78/2/3 76/2/3 75/2/3
f 79/2/3 77/2/3 69/2/3
f 79/2/3 78/2/3 77/2/3
f 80/2/3 76/2/3 78/2/3
f 80/2/3 78/2/3 79/2/3
f 80/2/3 70/2/3 76/2/3
f 83/2/3 82/2/3 81/2/3
f 84/2/3 82/2/3 83/2/3
f 85/2/3 82/2/3 84/2/3
f 86/2/3 82/2/3 85/2/3
f 87/2/3 83/2/3 81/2/3
f 88/2/3 85/2/3 84/2/3
f 89/2/3 85/2/3 88/2/3
f 89/2/3 88/2/3 87/2/3
f 90/2/3 82/2/3 86/2/3
f 91/2/3 89/2/3 87/2/3
f 91/2/3 90/2/3 89/2/3
f 91/2/3 87/2/3 81/2/3
f 92/2/3 82/2/3 90/2/3
f 92/2/3 90/2/3 91/2/3
f 95/3/3 94/3/3 93/3/3
f 96/3/3 94/3/3 95/3/3
f 101/4/3 98/4/3 97/4/3
f 102/4/3 98/4/3 101/4/3
f 103/4/3 100/4/3 99/4/3
f 104/4/3 100/4/3 103/4/3
f 105/3/3 95/3/3 93/3/3
f 106/3/3 94/3/3 96/3/3
f 107/3/3 105/3/3 93/3/3
f 107/3/3 106/3/3 105/3/3
f 108/3/3 94/3/3 106/3/3
f 108/3/3 106/3/3 107/3/3
f 111/4/3 110/4/3 109/4/3
f 112/4/3 110/4/3 111/4/3
f 115/4/3 114/4/3 113/4/3
f 116/4/3 114/4/3 115/4/3
f 117/3/3 107/3/3 93/3/3
f 118/3/3 94/3/3 108/3/3
f 119/3/3 117/3/3 93/3/3
f 119/3/3 118/3/3 117/3/3
f 120/3/3 94/3/3 118/3/3
f 120/3/3 118/3/3 119/3/3
f 123/1/3 122/1/3 121/1/3
f 124/1/3 122/1/3 123/1/3
f 127/1/3 126/1/3 125/1/3
f 128/1/3 126/1/3 127/1/3
f 129/3/4 130/3/4 131/3/4
f 131/3/4 130/3/4 132/3/4
f 135/3/5 134/3/5 133/3/5
f 136/3/5 134/3/5 135/3/5
f 141/2/5 138/2/5 137/2/5
f 142/2/5 138/2/5 141/2/5
f 143/2/5 140/2/5 139/2/5
f 144/2/5 140/2/5 143/2/5
f 149/2/5 146/2/5 145/2/5
f 150/2/5 146/2/5 149/2/5
f 151/2/5 146/2/5 150/2/5
f 152/2/5 148/2/5 147/2/5
f 153/2/5 148/2/5 152/2/5
f 154/2/5 148/2/5 153/2/5
f 155/4/5 150/4/5 149/4/5
f 156/4/5 150/4/5 155/4/5
f 157/4/5 154/4/5 153/4/5
f 158/4/5 154/4/5 157/4/5
f 163/2/5 160/2/5 159/2/5
f 164/2/5 160/2/5 163/2/5
f 165/2/5 162/2/5 161/2/5
f 166/2/5 162/2/5 165/2/5
f 167/2/6 168/2/6 171/2/6
f 171/2/6 168/2/6 172/2/6
f 172/2/6 168/2/6 173/2/6
f 169/2/6 170/2/6 174/2/6
f 174/2/6 170/2/6 175/2/6
f 175/2/6 170/2/6 176/2/6
f 171/4/6 172/4/6 177/4/6
f 177/4/6 172/4/6 178/4/6
f 175/4/6 176/4/6 179/4/6
f 179/4/6 176/4/6 180/4/6
f 181/2/6 182/2/6 185/2/6
f 185/2/6 182/2/6 186/2/6
f 183/2/6 184/2/6 187/2/6
f 187/2/6 184/2/6 188/2/6
f 189/2/6 190/2/6 193/2/6
f 193/2/6 190/2/6 194/2/6
f 191/2/6 192/2/6 195/2/6
f 195/2/6 192/2/6 196/2/6
f 197/3/6 198/3/6 199/3/6
f 199/3/6 198/3/6 200/3/6
