# MagicaVoxel @ Ephtracy

# group
o 

# material
mtllib Monster1.mtl
usemtl palette

# normals
vn -1 0 0
vn 1 0 0
vn 0 0 1
vn 0 0 -1
vn 0 -1 0
vn 0 1 0

# texcoords
vt 0.880859 0.5
vt 0.923828 0.5
vt 0.955078 0.5

# verts
v -0.7 2 0.5
v -0.7 2 -0.1
v -0.7 2.4 0.5
v -0.7 2.4 -0.1
v -0.4 0 0.4
v -0.4 0 -0.1
v -0.4 1.4 0.4
v -0.4 1.4 -0.1
v -0.4 2 0.4
v -0.4 2 -0.1
v -0.3 2.4 0.4
v -0.3 2.4 -0.1
v -0.3 2.7 0.5
v -0.3 2.7 0.4
v -0.3 2.8 0.5
v -0.3 2.8 0.4
v -0.3 2.9 0.4
v -0.3 2.9 -0.1
v 0.1 0 0.4
v 0.1 0 -0.1
v 0.1 1.4 0.4
v 0.1 1.4 -0.1
v 0.3 2.7 0.5
v 0.3 2.7 0.4
v 0.3 2.8 0.5
v 0.3 2.8 0.4
v 0.6 2 0.5
v 0.6 2 0.4
v 0.6 2.4 0.5
v 0.6 2.4 0.4
v -0.5 2 0.5
v -0.5 2 0.4
v -0.5 2.4 0.5
v -0.5 2.4 0.4
v -0.2 2.7 0.5
v -0.2 2.7 0.4
v -0.2 2.8 0.5
v -0.2 2.8 0.4
v 5.96046e-08 0 0.4
v 5.96046e-08 0 -0.1
v 5.96046e-08 1.4 0.4
v 5.96046e-08 1.4 -0.1
v 0.4 2.4 0.4
v 0.4 2.4 -0.1
v 0.4 2.7 0.5
v 0.4 2.7 0.4
v 0.4 2.8 0.5
v 0.4 2.8 0.4
v 0.4 2.9 0.4
v 0.4 2.9 -0.1
v 0.5 0 0.4
v 0.5 0 -0.1
v 0.5 1.4 0.4
v 0.5 1.4 -0.1
v 0.5 2 0.4
v 0.5 2 -0.1
v 0.8 2 0.5
v 0.8 2 -0.1
v 0.8 2.4 0.5
v 0.8 2.4 -0.1
v -0.7 2 0.5
v -0.7 2.4 0.5
v -0.5 2 0.5
v -0.5 2.4 0.5
v -0.3 2.7 0.5
v -0.3 2.8 0.5
v -0.2 2.7 0.5
v -0.2 2.8 0.5
v 0.3 2.7 0.5
v 0.3 2.8 0.5
v 0.4 2.7 0.5
v 0.4 2.8 0.5
v 0.6 2 0.5
v 0.6 2.4 0.5
v 0.8 2 0.5
v 0.8 2.4 0.5
v -0.5 2 0.4
v -0.5 2.4 0.4
v -0.4 0 0.4
v -0.4 1.4 0.4
v -0.4 2 0.4
v -0.4 2.4 0.4
v -0.3 2.4 0.4
v -0.3 2.7 0.4
v -0.3 2.8 0.4
v -0.3 2.9 0.4
v -0.2 2.7 0.4
v -0.2 2.8 0.4
v 5.96046e-08 0 0.4
v 5.96046e-08 1.4 0.4
v 0.1 0 0.4
v 0.1 1.4 0.4
v 0.3 2.7 0.4
v 0.3 2.8 0.4
v 0.4 2.4 0.4
v 0.4 2.7 0.4
v 0.4 2.8 0.4
v 0.4 2.9 0.4
v 0.5 0 0.4
v 0.5 1.4 0.4
v 0.5 2 0.4
v 0.5 2.4 0.4
v 0.6 2 0.4
v 0.6 2.4 0.4
v -0.7 2 -0.1
v -0.7 2.4 -0.1
v -0.4 0 -0.1
v -0.4 1.4 -0.1
v -0.4 2 -0.1
v -0.4 2.4 -0.1
v -0.3 2.4 -0.1
v -0.3 2.9 -0.1
v 5.96046e-08 0 -0.1
v 5.96046e-08 1.4 -0.1
v 0.1 0 -0.1
v 0.1 1.4 -0.1
v 0.4 2.4 -0.1
v 0.4 2.9 -0.1
v 0.5 0 -0.1
v 0.5 1.4 -0.1
v 0.5 2 -0.1
v 0.5 2.4 -0.1
v 0.8 2 -0.1
v 0.8 2.4 -0.1
v -0.4 0 0.4
v 5.96046e-08 0 0.4
v 0.1 0 0.4
v 0.5 0 0.4
v -0.4 0 -0.1
v 5.96046e-08 0 -0.1
v 0.1 0 -0.1
v 0.5 0 -0.1
v 5.96046e-08 1.4 0.4
v 0.1 1.4 0.4
v 5.96046e-08 1.4 -0.1
v 0.1 1.4 -0.1
v -0.7 2 0.5
v -0.5 2 0.5
v 0.6 2 0.5
v 0.8 2 0.5
v -0.5 2 0.4
v -0.4 2 0.4
v 0.5 2 0.4
v 0.6 2 0.4
v -0.7 2 -0.1
v -0.4 2 -0.1
v 0.5 2 -0.1
v 0.8 2 -0.1
v -0.3 2.7 0.5
v -0.2 2.7 0.5
v 0.3 2.7 0.5
v 0.4 2.7 0.5
v -0.3 2.7 0.4
v -0.2 2.7 0.4
v 0.3 2.7 0.4
v 0.4 2.7 0.4
v -0.7 2.4 0.5
v -0.5 2.4 0.5
v 0.6 2.4 0.5
v 0.8 2.4 0.5
v -0.5 2.4 0.4
v -0.4 2.4 0.4
v -0.3 2.4 0.4
v 0.4 2.4 0.4
v 0.5 2.4 0.4
v 0.6 2.4 0.4
v -0.7 2.4 -0.1
v -0.4 2.4 -0.1
v -0.3 2.4 -0.1
v 0.4 2.4 -0.1
v 0.5 2.4 -0.1
v 0.8 2.4 -0.1
v -0.3 2.8 0.5
v -0.2 2.8 0.5
v 0.3 2.8 0.5
v 0.4 2.8 0.5
v -0.3 2.8 0.4
v -0.2 2.8 0.4
v 0.3 2.8 0.4
v 0.4 2.8 0.4
v -0.3 2.9 0.4
v 0.4 2.9 0.4
v -0.3 2.9 -0.1
v 0.4 2.9 -0.1

# faces
f 3/1/1 2/1/1 1/1/1
f 4/1/1 2/1/1 3/1/1
f 7/1/1 6/1/1 5/1/1
f 8/1/1 6/1/1 7/1/1
f 9/2/1 8/2/1 7/2/1
f 10/2/1 8/2/1 9/2/1
f 14/1/1 12/1/1 11/1/1
f 15/3/1 14/3/1 13/3/1
f 16/1/1 12/1/1 14/1/1
f 16/3/1 14/3/1 15/3/1
f 17/1/1 12/1/1 16/1/1
f 18/1/1 12/1/1 17/1/1
f 21/1/1 20/1/1 19/1/1
f 22/1/1 20/1/1 21/1/1
f 25/3/1 24/3/1 23/3/1
f 26/3/1 24/3/1 25/3/1
f 29/1/1 28/1/1 27/1/1
f 30/1/1 28/1/1 29/1/1
f 31/1/2 32/1/2 33/1/2
f 33/1/2 32/1/2 34/1/2
f 35/3/2 36/3/2 37/3/2
f 37/3/2 36/3/2 38/3/2
f 39/1/2 40/1/2 41/1/2
f 41/1/2 40/1/2 42/1/2
f 43/1/2 44/1/2 46/1/2
f 45/3/2 46/3/2 47/3/2
f 46/1/2 44/1/2 48/1/2
f 47/3/2 46/3/2 48/3/2
f 48/1/2 44/1/2 49/1/2
f 49/1/2 44/1/2 50/1/2
f 51/1/2 52/1/2 53/1/2
f 53/1/2 52/1/2 54/1/2
f 53/2/2 54/2/2 55/2/2
f 55/2/2 54/2/2 56/2/2
f 57/1/2 58/1/2 59/1/2
f 59/1/2 58/1/2 60/1/2
f 63/1/3 62/1/3 61/1/3
f 64/1/3 62/1/3 63/1/3
f 67/3/3 66/3/3 65/3/3
f 68/3/3 66/3/3 67/3/3
f 71/3/3 70/3/3 69/3/3
f 72/3/3 70/3/3 71/3/3
f 75/1/3 74/1/3 73/1/3
f 76/1/3 74/1/3 75/1/3
f 81/1/3 78/1/3 77/1/3
f 82/1/3 78/1/3 81/1/3
f 83/2/3 81/2/3 80/2/3
f 83/2/3 82/2/3 81/2/3
f 87/1/3 84/1/3 83/1/3
f 88/1/3 86/1/3 85/1/3
f 89/1/3 80/1/3 79/1/3
f 90/2/3 83/2/3 80/2/3
f 90/1/3 80/1/3 89/1/3
f 92/2/3 83/2/3 90/2/3
f 93/1/3 88/1/3 87/1/3
f 93/1/3 87/1/3 83/1/3
f 94/1/3 86/1/3 88/1/3
f 94/1/3 88/1/3 93/1/3
f 95/2/3 83/2/3 92/2/3
f 95/1/3 93/1/3 83/1/3
f 96/1/3 93/1/3 95/1/3
f 97/1/3 86/1/3 94/1/3
f 98/1/3 86/1/3 97/1/3
f 99/1/3 92/1/3 91/1/3
f 100/2/3 95/2/3 92/2/3
f 100/1/3 92/1/3 99/1/3
f 101/2/3 95/2/3 100/2/3
f 102/2/3 95/2/3 101/2/3
f 103/1/3 102/1/3 101/1/3
f 104/1/3 102/1/3 103/1/3
f 105/1/4 106/1/4 109/1/4
f 109/1/4 106/1/4 110/1/4
f 108/2/4 109/2/4 111/2/4
f 109/2/4 110/2/4 111/2/4
f 107/1/4 108/1/4 113/1/4
f 108/2/4 111/2/4 114/2/4
f 113/1/4 108/1/4 114/1/4
f 114/2/4 111/2/4 116/2/4
f 111/1/4 112/1/4 117/1/4
f 116/2/4 111/2/4 117/2/4
f 117/1/4 112/1/4 118/1/4
f 115/1/4 116/1/4 119/1/4
f 116/2/4 117/2/4 120/2/4
f 119/1/4 116/1/4 120/1/4
f 120/2/4 117/2/4 121/2/4
f 121/2/4 117/2/4 122/2/4
f 121/1/4 122/1/4 123/1/4
f 123/1/4 122/1/4 124/1/4
f 129/1/5 126/1/5 125/1/5
f 130/1/5 126/1/5 129/1/5
f 131/1/5 128/1/5 127/1/5
f 132/1/5 128/1/5 131/1/5
f 135/2/5 134/2/5 133/2/5
f 136/2/5 134/2/5 135/2/5
f 141/1/5 138/1/5 137/1/5
f 144/1/5 140/1/5 139/1/5
f 145/1/5 142/1/5 141/1/5
f 145/1/5 141/1/5 137/1/5
f 146/1/5 142/1/5 145/1/5
f 147/1/5 144/1/5 143/1/5
f 148/1/5 140/1/5 144/1/5
f 148/1/5 144/1/5 147/1/5
f 153/3/5 150/3/5 149/3/5
f 154/3/5 150/3/5 153/3/5
f 155/3/5 152/3/5 151/3/5
f 156/3/5 152/3/5 155/3/5
f 157/1/6 158/1/6 161/1/6
f 159/1/6 160/1/6 166/1/6
f 157/1/6 161/1/6 167/1/6
f 161/1/6 162/1/6 167/1/6
f 162/2/6 163/2/6 168/2/6
f 167/1/6 162/1/6 168/1/6
f 168/2/6 163/2/6 169/2/6
f 164/2/6 165/2/6 170/2/6
f 165/1/6 166/1/6 171/1/6
f 170/2/6 165/2/6 171/2/6
f 166/1/6 160/1/6 172/1/6
f 171/1/6 166/1/6 172/1/6
f 173/3/6 174/3/6 177/3/6
f 177/3/6 174/3/6 178/3/6
f 175/3/6 176/3/6 179/3/6
f 179/3/6 176/3/6 180/3/6
f 181/1/6 182/1/6 183/1/6
f 183/1/6 182/1/6 184/1/6
