# MagicaVoxel @ Ephtracy

# group
o 

# material
mtllib InElevator.mtl
usemtl palette

# normals
vn -1 0 0
vn 1 0 0
vn 0 0 1
vn 0 0 -1
vn 0 -1 0
vn 0 1 0

# texcoords
vt 0.970703 0.5
vt 0.974609 0.5
vt 0.978516 0.5
vt 0.982422 0.5
vt 0.986328 0.5
vt 0.990234 0.5
vt 0.994141 0.5

# verts
v -5 0 5
v -5 0 -5.1
v -5 0.1 5
v -5 0.1 -5.1
v -4.4 0.1 5
v -4.4 0.1 1
v -4.4 0.1 0.3
v -4.4 0.1 -0.5
v -4.4 9.1 5
v -4.4 9.1 1
v -4.4 9.1 0.3
v -4.4 9.1 -0.5
v -4.3 0.1 -0.5
v -4.3 0.1 -0.9
v -4.3 8.3 -0.5
v -4.3 8.3 -0.8
v -4.3 8.4 -0.5
v -4.3 8.4 -0.8
v -4.3 9.1 -0.5
v -4.3 9.1 -0.9
v 2.5 0.1 -0.5
v 2.5 0.1 -0.6
v 2.5 0.1 -0.7
v 2.5 8.3 -0.5
v 2.5 8.3 -0.6
v 2.5 8.3 -0.7
v 2.5 8.4 -0.5
v 2.5 8.4 -0.6
v 2.5 8.4 -0.7
v 4.4 0.1 5
v 4.4 0.1 1
v 4.4 0.1 0.3
v 4.4 0.1 -0.5
v 4.4 8.3 -0.5
v 4.4 8.4 -0.5
v 4.4 9.1 5
v 4.4 9.1 1
v 4.4 9.1 0.3
v 4.4 9.1 -0.5
v -4.3 0.1 5
v -4.3 0.1 1
v -4.3 0.1 0.3
v -4.3 0.1 -0.5
v -4.3 8.3 -0.5
v -4.3 8.4 -0.5
v -4.3 9.1 5
v -4.3 9.1 1
v -4.3 9.1 0.3
v -4.3 9.1 -0.5
v -2.4 0.1 -0.5
v -2.4 0.1 -0.6
v -2.4 0.1 -0.7
v -2.4 8.3 -0.5
v -2.4 8.3 -0.6
v -2.4 8.3 -0.7
v -2.4 8.4 -0.5
v -2.4 8.4 -0.6
v -2.4 8.4 -0.7
v 4.4 0.1 -0.5
v 4.4 0.1 -0.9
v 4.4 8.3 -0.5
v 4.4 8.3 -0.8
v 4.4 8.4 -0.5
v 4.4 8.4 -0.8
v 4.4 9.1 -0.5
v 4.4 9.1 -0.9
v 4.5 0.1 5
v 4.5 0.1 1
v 4.5 0.1 0.3
v 4.5 0.1 -0.5
v 4.5 9.1 5
v 4.5 9.1 1
v 4.5 9.1 0.3
v 4.5 9.1 -0.5
v 5.1 0 5
v 5.1 0 -5.1
v 5.1 0.1 5
v 5.1 0.1 -5.1
v -5 0 5
v -5 0.1 5
v -4.4 0.1 5
v -4.4 9.1 5
v -4.3 0 5
v -4.3 0.1 5
v -4.3 9.1 5
v -3.8 0 5
v -3.8 0.1 5
v -2.4 0 5
v -2.4 0.1 5
v -2.3 0 5
v -2.3 0.1 5
v 2.4 0 5
v 2.4 0.1 5
v 2.5 0 5
v 2.5 0.1 5
v 3.9 0 5
v 3.9 0.1 5
v 4.4 0 5
v 4.4 0.1 5
v 4.4 9.1 5
v 4.5 0.1 5
v 4.5 9.1 5
v 5.1 0 5
v 5.1 0.1 5
v -4.3 0.1 -0.5
v -4.3 8.3 -0.5
v -4.3 8.4 -0.5
v -4.3 9.1 -0.5
v -2.4 0.1 -0.5
v -2.4 8.3 -0.5
v -2.4 8.4 -0.5
v 2.5 0.1 -0.5
v 2.5 8.3 -0.5
v 2.5 8.4 -0.5
v 4.4 0.1 -0.5
v 4.4 8.3 -0.5
v 4.4 8.4 -0.5
v 4.4 9.1 -0.5
v -2.4 0.1 -0.7
v -2.4 8.3 -0.7
v -2.4 8.4 -0.7
v -1.2 0.1 -0.7
v -1.2 8.4 -0.7
v -1.1 0.1 -0.7
v -1.1 8.4 -0.7
v -0.9 0.1 -0.7
v -0.9 8.4 -0.7
v -0.8 0.1 -0.7
v -0.8 8.4 -0.7
v -0.6 0.1 -0.7
v -0.6 8.4 -0.7
v -0.5 0.1 -0.7
v -0.5 8.4 -0.7
v 0 0.1 -0.7
v 0 8.4 -0.7
v 0.1 0.1 -0.7
v 0.1 8.4 -0.7
v 0.6 0.1 -0.7
v 0.6 8.4 -0.7
v 0.7 0.1 -0.7
v 0.7 8.4 -0.7
v 0.9 0.1 -0.7
v 0.9 8.4 -0.7
v 1 0.1 -0.7
v 1 8.4 -0.7
v 1.2 0.1 -0.7
v 1.2 8.4 -0.7
v 1.3 0.1 -0.7
v 1.3 8.4 -0.7
v 2.5 0.1 -0.7
v 2.5 8.3 -0.7
v 2.5 8.4 -0.7
v -4.4 0.1 -0.5
v -4.4 9.1 -0.5
v -4.3 0.1 -0.5
v -4.3 8.3 -0.5
v -4.3 8.4 -0.5
v -4.3 9.1 -0.5
v 4.4 0.1 -0.5
v 4.4 8.3 -0.5
v 4.4 8.4 -0.5
v 4.4 9.1 -0.5
v 4.5 0.1 -0.5
v 4.5 9.1 -0.5
v -4.3 0.1 -0.9
v -4.3 9.1 -0.9
v 4.4 0.1 -0.9
v 4.4 9.1 -0.9
v -5 0 -5.1
v -5 0.1 -5.1
v 5.1 0 -5.1
v 5.1 0.1 -5.1
v -5 0 5
v -4.3 0 5
v -3.8 0 5
v -2.4 0 5
v -2.3 0 5
v 2.4 0 5
v 2.5 0 5
v 3.9 0 5
v 4.4 0 5
v 5.1 0 5
v -3.8 0 1.4
v -2.4 0 1.4
v -2.3 0 1.4
v 2.4 0 1.4
v 2.5 0 1.4
v 3.9 0 1.4
v -3.8 0 1.3
v -2.4 0 1.3
v -2.3 0 1.3
v 2.4 0 1.3
v 2.5 0 1.3
v 3.9 0 1.3
v -3.8 0 0
v -2.4 0 0
v -2.3 0 0
v 2.4 0 0
v 2.5 0 0
v 3.9 0 0
v -4.3 0 -0.5
v -2.4 0 -0.5
v 2.5 0 -0.5
v 4.4 0 -0.5
v -2.4 0 -0.7
v 2.5 0 -0.7
v -5 0 -5.1
v 5.1 0 -5.1
v -2.4 8.4 -0.5
v 2.5 8.4 -0.5
v -2.4 8.4 -0.6
v 2.5 8.4 -0.6
v -2.4 8.4 -0.7
v -1.2 8.4 -0.7
v -1.1 8.4 -0.7
v -0.9 8.4 -0.7
v -0.8 8.4 -0.7
v -0.6 8.4 -0.7
v -0.5 8.4 -0.7
v 0 8.4 -0.7
v 0.1 8.4 -0.7
v 0.6 8.4 -0.7
v 0.7 8.4 -0.7
v 0.9 8.4 -0.7
v 1 8.4 -0.7
v 1.2 8.4 -0.7
v 1.3 8.4 -0.7
v 2.5 8.4 -0.7
v -5 0.1 5
v -4.4 0.1 5
v -4.3 0.1 5
v -3.8 0.1 5
v -2.4 0.1 5
v -2.3 0.1 5
v 2.4 0.1 5
v 2.5 0.1 5
v 3.9 0.1 5
v 4.4 0.1 5
v 4.5 0.1 5
v 5.1 0.1 5
v -3.8 0.1 1.4
v -2.4 0.1 1.4
v -2.3 0.1 1.4
v 2.4 0.1 1.4
v 2.5 0.1 1.4
v 3.9 0.1 1.4
v -3.8 0.1 1.3
v -2.4 0.1 1.3
v -2.3 0.1 1.3
v 2.4 0.1 1.3
v 2.5 0.1 1.3
v 3.9 0.1 1.3
v -4.4 0.1 1
v -4.3 0.1 1
v 4.4 0.1 1
v 4.5 0.1 1
v -4.4 0.1 0.3
v -4.3 0.1 0.3
v 4.4 0.1 0.3
v 4.5 0.1 0.3
v -3.8 0.1 0
v -2.4 0.1 0
v -2.3 0.1 0
v 2.4 0.1 0
v 2.5 0.1 0
v 3.9 0.1 0
v -4.4 0.1 -0.5
v -4.3 0.1 -0.5
v -2.4 0.1 -0.5
v 2.5 0.1 -0.5
v 4.4 0.1 -0.5
v 4.5 0.1 -0.5
v -2.4 0.1 -0.6
v 2.5 0.1 -0.6
v -2.4 0.1 -0.7
v -1.2 0.1 -0.7
v -1.1 0.1 -0.7
v -0.9 0.1 -0.7
v -0.8 0.1 -0.7
v -0.6 0.1 -0.7
v -0.5 0.1 -0.7
v 0 0.1 -0.7
v 0.1 0.1 -0.7
v 0.6 0.1 -0.7
v 0.7 0.1 -0.7
v 0.9 0.1 -0.7
v 1 0.1 -0.7
v 1.2 0.1 -0.7
v 1.3 0.1 -0.7
v 2.5 0.1 -0.7
v -4.3 0.1 -0.9
v 4.4 0.1 -0.9
v -5 0.1 -5.1
v 5.1 0.1 -5.1
v -4.4 9.1 5
v -4.3 9.1 5
v 4.4 9.1 5
v 4.5 9.1 5
v -4.4 9.1 1
v -4.3 9.1 1
v 4.4 9.1 1
v 4.5 9.1 1
v -4.4 9.1 0.3
v -4.3 9.1 0.3
v 4.4 9.1 0.3
v 4.5 9.1 0.3
v -4.4 9.1 -0.5
v -4.3 9.1 -0.5
v 4.4 9.1 -0.5
v 4.5 9.1 -0.5
v -4.3 9.1 -0.9
v 4.4 9.1 -0.9

# faces
f 3/4/1 2/4/1 1/4/1
f 4/4/1 2/4/1 3/4/1
f 9/5/1 6/5/1 5/5/1
f 10/6/1 7/6/1 6/6/1
f 10/5/1 6/5/1 9/5/1
f 11/7/1 8/7/1 7/7/1
f 11/6/1 7/6/1 10/6/1
f 12/7/1 8/7/1 11/7/1
f 15/4/1 14/4/1 13/4/1
f 16/4/1 14/4/1 15/4/1
f 17/2/1 16/2/1 15/2/1
f 18/4/1 14/4/1 16/4/1
f 18/2/1 16/2/1 17/2/1
f 19/4/1 18/4/1 17/4/1
f 20/4/1 14/4/1 18/4/1
f 20/4/1 18/4/1 19/4/1
f 24/4/1 22/4/1 21/4/1
f 25/6/1 23/6/1 22/6/1
f 25/4/1 22/4/1 24/4/1
f 26/6/1 23/6/1 25/6/1
f 27/2/1 25/2/1 24/2/1
f 27/2/1 26/2/1 25/2/1
f 28/2/1 26/2/1 27/2/1
f 29/2/1 26/2/1 28/2/1
f 34/7/1 33/7/1 32/7/1
f 35/7/1 34/7/1 32/7/1
f 36/5/1 31/5/1 30/5/1
f 37/6/1 32/6/1 31/6/1
f 37/5/1 31/5/1 36/5/1
f 38/7/1 35/7/1 32/7/1
f 38/6/1 32/6/1 37/6/1
f 39/7/1 35/7/1 38/7/1
f 42/7/2 43/7/2 44/7/2
f 42/7/2 44/7/2 45/7/2
f 40/5/2 41/5/2 46/5/2
f 41/6/2 42/6/2 47/6/2
f 46/5/2 41/5/2 47/5/2
f 42/7/2 45/7/2 48/7/2
f 47/6/2 42/6/2 48/6/2
f 48/7/2 45/7/2 49/7/2
f 50/4/2 51/4/2 53/4/2
f 51/6/2 52/6/2 54/6/2
f 53/4/2 51/4/2 54/4/2
f 54/6/2 52/6/2 55/6/2
f 53/2/2 54/2/2 56/2/2
f 54/2/2 55/2/2 56/2/2
f 56/2/2 55/2/2 57/2/2
f 57/2/2 55/2/2 58/2/2
f 59/4/2 60/4/2 61/4/2
f 61/4/2 60/4/2 62/4/2
f 61/2/2 62/2/2 63/2/2
f 62/4/2 60/4/2 64/4/2
f 63/2/2 62/2/2 64/2/2
f 63/4/2 64/4/2 65/4/2
f 64/4/2 60/4/2 66/4/2
f 65/4/2 64/4/2 66/4/2
f 67/5/2 68/5/2 71/5/2
f 68/6/2 69/6/2 72/6/2
f 71/5/2 68/5/2 72/5/2
f 69/7/2 70/7/2 73/7/2
f 72/6/2 69/6/2 73/6/2
f 73/7/2 70/7/2 74/7/2
f 75/4/2 76/4/2 77/4/2
f 77/4/2 76/4/2 78/4/2
f 81/4/3 80/4/3 79/4/3
f 83/4/3 81/4/3 79/4/3
f 84/5/3 82/5/3 81/5/3
f 84/4/3 81/4/3 83/4/3
f 85/5/3 82/5/3 84/5/3
f 86/6/3 84/6/3 83/6/3
f 87/6/3 84/6/3 86/6/3
f 88/2/3 87/2/3 86/2/3
f 89/2/3 87/2/3 88/2/3
f 90/5/3 89/5/3 88/5/3
f 91/5/3 89/5/3 90/5/3
f 92/2/3 91/2/3 90/2/3
f 93/2/3 91/2/3 92/2/3
f 94/5/3 93/5/3 92/5/3
f 95/5/3 93/5/3 94/5/3
f 96/2/3 95/2/3 94/2/3
f 97/2/3 95/2/3 96/2/3
f 98/6/3 97/6/3 96/6/3
f 99/6/3 97/6/3 98/6/3
f 101/4/3 99/4/3 98/4/3
f 101/5/3 100/5/3 99/5/3
f 102/5/3 100/5/3 101/5/3
f 103/4/3 101/4/3 98/4/3
f 104/4/3 101/4/3 103/4/3
f 109/4/3 106/4/3 105/4/3
f 110/2/3 107/2/3 106/2/3
f 110/4/3 106/4/3 109/4/3
f 111/4/3 108/4/3 107/4/3
f 111/2/3 107/2/3 110/2/3
f 114/4/3 108/4/3 111/4/3
f 115/4/3 113/4/3 112/4/3
f 116/2/3 114/2/3 113/2/3
f 116/4/3 113/4/3 115/4/3
f 117/4/3 108/4/3 114/4/3
f 117/2/3 114/2/3 116/2/3
f 118/4/3 108/4/3 117/4/3
f 122/3/3 120/3/3 119/3/3
f 122/3/3 121/3/3 120/3/3
f 123/3/3 121/3/3 122/3/3
f 124/1/3 123/1/3 122/1/3
f 125/1/3 123/1/3 124/1/3
f 126/3/3 125/3/3 124/3/3
f 127/3/3 125/3/3 126/3/3
f 128/1/3 127/1/3 126/1/3
f 129/1/3 127/1/3 128/1/3
f 130/3/3 129/3/3 128/3/3
f 131/3/3 129/3/3 130/3/3
f 132/1/3 131/1/3 130/1/3
f 133/1/3 131/1/3 132/1/3
f 134/3/3 133/3/3 132/3/3
f 135/3/3 133/3/3 134/3/3
f 136/5/3 135/5/3 134/5/3
f 137/5/3 135/5/3 136/5/3
f 138/3/3 137/3/3 136/3/3
f 139/3/3 137/3/3 138/3/3
f 140/1/3 139/1/3 138/1/3
f 141/1/3 139/1/3 140/1/3
f 142/3/3 141/3/3 140/3/3
f 143/3/3 141/3/3 142/3/3
f 144/1/3 143/1/3 142/1/3
f 145/1/3 143/1/3 144/1/3
f 146/3/3 145/3/3 144/3/3
f 147/3/3 145/3/3 146/3/3
f 148/1/3 147/1/3 146/1/3
f 149/1/3 147/1/3 148/1/3
f 150/3/3 149/3/3 148/3/3
f 151/3/3 149/3/3 150/3/3
f 152/3/3 149/3/3 151/3/3
f 153/7/4 154/7/4 155/7/4
f 155/7/4 154/7/4 156/7/4
f 156/7/4 154/7/4 157/7/4
f 157/7/4 154/7/4 158/7/4
f 159/7/4 160/7/4 163/7/4
f 161/7/4 162/7/4 163/7/4
f 160/7/4 161/7/4 163/7/4
f 163/7/4 162/7/4 164/7/4
f 165/4/4 166/4/4 167/4/4
f 167/4/4 166/4/4 168/4/4
f 169/4/4 170/4/4 171/4/4
f 171/4/4 170/4/4 172/4/4
f 183/6/5 175/6/5 174/6/5
f 183/2/5 176/2/5 175/2/5
f 184/5/5 177/5/5 176/5/5
f 184/2/5 176/2/5 183/2/5
f 185/2/5 178/2/5 177/2/5
f 185/5/5 177/5/5 184/5/5
f 186/5/5 179/5/5 178/5/5
f 186/2/5 178/2/5 185/2/5
f 187/2/5 180/2/5 179/2/5
f 187/5/5 179/5/5 186/5/5
f 188/6/5 181/6/5 180/6/5
f 188/2/5 180/2/5 187/2/5
f 189/5/5 187/5/5 186/5/5
f 189/6/5 183/6/5 174/6/5
f 189/5/5 188/5/5 187/5/5
f 189/5/5 186/5/5 185/5/5
f 189/5/5 185/5/5 184/5/5
f 189/5/5 184/5/5 183/5/5
f 190/5/5 188/5/5 189/5/5
f 191/5/5 188/5/5 190/5/5
f 192/5/5 188/5/5 191/5/5
f 193/5/5 188/5/5 192/5/5
f 194/6/5 181/6/5 188/6/5
f 194/5/5 188/5/5 193/5/5
f 195/6/5 189/6/5 174/6/5
f 195/2/5 190/2/5 189/2/5
f 196/5/5 191/5/5 190/5/5
f 196/2/5 190/2/5 195/2/5
f 197/2/5 192/2/5 191/2/5
f 197/5/5 191/5/5 196/5/5
f 198/5/5 193/5/5 192/5/5
f 198/2/5 192/2/5 197/2/5
f 199/2/5 194/2/5 193/2/5
f 199/5/5 193/5/5 198/5/5
f 200/6/5 181/6/5 194/6/5
f 200/2/5 194/2/5 199/2/5
f 201/4/5 174/4/5 173/4/5
f 201/6/5 197/6/5 196/6/5
f 201/6/5 200/6/5 199/6/5
f 201/6/5 196/6/5 195/6/5
f 201/6/5 195/6/5 174/6/5
f 201/6/5 198/6/5 197/6/5
f 201/6/5 199/6/5 198/6/5
f 202/6/5 200/6/5 201/6/5
f 203/6/5 200/6/5 202/6/5
f 204/6/5 181/6/5 200/6/5
f 204/6/5 200/6/5 203/6/5
f 204/4/5 182/4/5 181/4/5
f 205/6/5 203/6/5 202/6/5
f 205/4/5 202/4/5 201/4/5
f 206/4/5 204/4/5 203/4/5
f 206/6/5 203/6/5 205/6/5
f 207/4/5 205/4/5 201/4/5
f 207/4/5 201/4/5 173/4/5
f 207/4/5 206/4/5 205/4/5
f 208/4/5 182/4/5 204/4/5
f 208/4/5 206/4/5 207/4/5
f 208/4/5 204/4/5 206/4/5
f 211/4/5 210/4/5 209/4/5
f 212/4/5 210/4/5 211/4/5
f 213/6/5 212/6/5 211/6/5
f 214/6/5 212/6/5 213/6/5
f 215/6/5 212/6/5 214/6/5
f 216/6/5 212/6/5 215/6/5
f 217/6/5 212/6/5 216/6/5
f 218/6/5 212/6/5 217/6/5
f 219/6/5 212/6/5 218/6/5
f 220/6/5 212/6/5 219/6/5
f 221/6/5 212/6/5 220/6/5
f 222/6/5 212/6/5 221/6/5
f 223/6/5 212/6/5 222/6/5
f 224/6/5 212/6/5 223/6/5
f 225/6/5 212/6/5 224/6/5
f 226/6/5 212/6/5 225/6/5
f 227/6/5 212/6/5 226/6/5
f 228/6/5 212/6/5 227/6/5
f 231/6/6 232/6/6 241/6/6
f 232/2/6 233/2/6 241/2/6
f 233/5/6 234/5/6 242/5/6
f 241/2/6 233/2/6 242/2/6
f 234/2/6 235/2/6 243/2/6
f 242/5/6 234/5/6 243/5/6
f 235/5/6 236/5/6 244/5/6
f 243/2/6 235/2/6 244/2/6
f 236/2/6 237/2/6 245/2/6
f 244/5/6 236/5/6 245/5/6
f 237/6/6 238/6/6 246/6/6
f 245/2/6 237/2/6 246/2/6
f 244/5/6 245/5/6 247/5/6
f 231/6/6 241/6/6 247/6/6
f 245/5/6 246/5/6 247/5/6
f 243/5/6 244/5/6 247/5/6
f 242/5/6 243/5/6 247/5/6
f 241/5/6 242/5/6 247/5/6
f 247/5/6 246/5/6 248/5/6
f 248/5/6 246/5/6 249/5/6
f 249/5/6 246/5/6 250/5/6
f 250/5/6 246/5/6 251/5/6
f 246/6/6 238/6/6 252/6/6
f 251/5/6 246/5/6 252/5/6
f 229/4/6 230/4/6 253/4/6
f 231/6/6 247/6/6 254/6/6
f 252/6/6 238/6/6 255/6/6
f 239/4/6 240/4/6 256/4/6
f 229/4/6 253/4/6 257/4/6
f 254/6/6 247/6/6 258/6/6
f 252/6/6 255/6/6 259/6/6
f 256/4/6 240/4/6 260/4/6
f 258/6/6 247/6/6 261/6/6
f 247/2/6 248/2/6 261/2/6
f 248/5/6 249/5/6 262/5/6
f 261/2/6 248/2/6 262/2/6
f 249/2/6 250/2/6 263/2/6
f 262/5/6 249/5/6 263/5/6
f 250/5/6 251/5/6 264/5/6
f 263/2/6 250/2/6 264/2/6
f 251/2/6 252/2/6 265/2/6
f 264/5/6 251/5/6 265/5/6
f 252/6/6 259/6/6 266/6/6
f 265/2/6 252/2/6 266/2/6
f 229/4/6 257/4/6 267/4/6
f 262/6/6 263/6/6 268/6/6
f 264/6/6 265/6/6 268/6/6
f 265/6/6 266/6/6 268/6/6
f 258/6/6 261/6/6 268/6/6
f 261/6/6 262/6/6 268/6/6
f 263/6/6 264/6/6 268/6/6
f 268/6/6 266/6/6 269/6/6
f 269/6/6 266/6/6 270/6/6
f 266/6/6 259/6/6 271/6/6
f 270/6/6 266/6/6 271/6/6
f 260/4/6 240/4/6 272/4/6
f 269/6/6 270/6/6 273/6/6
f 273/6/6 270/6/6 274/6/6
f 273/6/6 274/6/6 275/6/6
f 275/6/6 274/6/6 276/6/6
f 276/6/6 274/6/6 277/6/6
f 277/6/6 274/6/6 278/6/6
f 278/6/6 274/6/6 279/6/6
f 279/6/6 274/6/6 280/6/6
f 280/6/6 274/6/6 281/6/6
f 281/6/6 274/6/6 282/6/6
f 282/6/6 274/6/6 283/6/6
f 283/6/6 274/6/6 284/6/6
f 284/6/6 274/6/6 285/6/6
f 285/6/6 274/6/6 286/6/6
f 286/6/6 274/6/6 287/6/6
f 287/6/6 274/6/6 288/6/6
f 288/6/6 274/6/6 289/6/6
f 289/6/6 274/6/6 290/6/6
f 267/4/6 268/4/6 291/4/6
f 271/4/6 272/4/6 292/4/6
f 267/4/6 291/4/6 293/4/6
f 291/4/6 292/4/6 293/4/6
f 229/4/6 267/4/6 293/4/6
f 292/4/6 272/4/6 294/4/6
f 293/4/6 292/4/6 294/4/6
f 272/4/6 240/4/6 294/4/6
f 295/5/6 296/5/6 299/5/6
f 299/5/6 296/5/6 300/5/6
f 297/5/6 298/5/6 301/5/6
f 301/5/6 298/5/6 302/5/6
f 299/6/6 300/6/6 303/6/6
f 303/6/6 300/6/6 304/6/6
f 301/6/6 302/6/6 305/6/6
f 305/6/6 302/6/6 306/6/6
f 303/7/6 304/7/6 307/7/6
f 307/7/6 304/7/6 308/7/6
f 305/7/6 306/7/6 309/7/6
f 309/7/6 306/7/6 310/7/6
f 308/4/6 309/4/6 311/4/6
f 311/4/6 309/4/6 312/4/6
