# MagicaVoxel @ Ephtracy

# group
o 

# material
mtllib Lever.mtl
usemtl palette

# normals
vn -1 0 0
vn 1 0 0
vn 0 0 1
vn 0 0 -1
vn 0 -1 0
vn 0 1 0

# texcoords
vt 0.0136719 0.5
vt 0.279297 0.5
vt 0.919922 0.5
vt 0.982422 0.5

# verts
v -0.8 0 -1.5
v -0.8 0 -2.1
v -0.8 1.8 -1.5
v -0.8 1.8 -2.1
v -0.7 0 -1.4
v -0.7 0 -1.5
v -0.7 1.7 -1.4
v -0.7 1.7 -1.5
v -0.3 0.5 -1.6
v -0.3 0.5 -1.7
v -0.3 1.2 -1.6
v -0.3 1.2 -1.7
v -0.2 0.4 -1.4
v -0.2 0.4 -1.6
v -0.2 1.3 -1.4
v -0.2 1.3 -1.6
v -0.2 1.8 -1.9
v -0.2 1.8 -2.1
v -0.2 1.9 -1.9
v -0.2 1.9 -2.1
v -0.1 1.9 -2
v -0.1 1.9 -2.1
v -0.1 4.1 -2
v -0.1 4.1 -2.1
v 0.5 0.5 -1.6
v 0.5 0.5 -1.7
v 0.5 1.2 -1.6
v 0.5 1.2 -1.7
v 0.6 0.4 -1.4
v 0.6 0.4 -1.6
v 0.6 1.3 -1.4
v 0.6 1.3 -1.6
v -0.5 0.4 -1.4
v -0.5 0.4 -1.6
v -0.5 1.3 -1.4
v -0.5 1.3 -1.6
v -0.4 0.5 -1.6
v -0.4 0.5 -1.7
v -0.4 1.2 -1.6
v -0.4 1.2 -1.7
v 0.2 1.9 -2
v 0.2 1.9 -2.1
v 0.2 4.1 -2
v 0.2 4.1 -2.1
v 0.3 0.4 -1.4
v 0.3 0.4 -1.6
v 0.3 1.3 -1.4
v 0.3 1.3 -1.6
v 0.3 1.8 -1.9
v 0.3 1.8 -2.1
v 0.3 1.9 -1.9
v 0.3 1.9 -2.1
v 0.4 0.5 -1.6
v 0.4 0.5 -1.7
v 0.4 1.2 -1.6
v 0.4 1.2 -1.7
v 0.8 0 -1.4
v 0.8 0 -1.5
v 0.8 1.7 -1.4
v 0.8 1.7 -1.5
v 0.9 0 -1.5
v 0.9 0 -2.1
v 0.9 1.8 -1.5
v 0.9 1.8 -2.1
v -0.7 0 -1.4
v -0.7 1.7 -1.4
v -0.5 0.4 -1.4
v -0.5 1.3 -1.4
v -0.2 0.4 -1.4
v -0.2 1.3 -1.4
v 0.3 0.4 -1.4
v 0.3 1.3 -1.4
v 0.6 0.4 -1.4
v 0.6 1.3 -1.4
v 0.8 0 -1.4
v 0.8 1.7 -1.4
v -0.8 0 -1.5
v -0.8 1.8 -1.5
v -0.7 0 -1.5
v -0.7 1.7 -1.5
v 0.8 0 -1.5
v 0.8 1.7 -1.5
v 0.9 0 -1.5
v 0.9 1.8 -1.5
v -0.5 0.4 -1.6
v -0.5 1.3 -1.6
v -0.4 0.5 -1.6
v -0.4 1.2 -1.6
v -0.3 0.5 -1.6
v -0.3 1.2 -1.6
v -0.2 0.4 -1.6
v -0.2 1.3 -1.6
v 0.3 0.4 -1.6
v 0.3 1.3 -1.6
v 0.4 0.5 -1.6
v 0.4 1.2 -1.6
v 0.5 0.5 -1.6
v 0.5 1.2 -1.6
v 0.6 0.4 -1.6
v 0.6 1.3 -1.6
v -0.4 0.5 -1.7
v -0.4 1.2 -1.7
v -0.3 0.5 -1.7
v -0.3 1.2 -1.7
v 0.4 0.5 -1.7
v 0.4 1.2 -1.7
v 0.5 0.5 -1.7
v 0.5 1.2 -1.7
v -0.2 1.8 -1.9
v -0.2 1.9 -1.9
v 0.3 1.8 -1.9
v 0.3 1.9 -1.9
v -0.1 1.9 -2
v -0.1 4.1 -2
v 5.96046e-08 1.9 -2
v 5.96046e-08 4.1 -2
v 0.1 1.9 -2
v 0.1 4.1 -2
v 0.2 1.9 -2
v 0.2 4.1 -2
v -0.8 0 -2.1
v -0.8 1.8 -2.1
v -0.2 1.8 -2.1
v -0.2 1.9 -2.1
v -0.1 1.9 -2.1
v -0.1 4.1 -2.1
v 5.96046e-08 1.9 -2.1
v 5.96046e-08 4.1 -2.1
v 0.1 1.9 -2.1
v 0.1 4.1 -2.1
v 0.2 1.9 -2.1
v 0.2 4.1 -2.1
v 0.3 1.8 -2.1
v 0.3 1.9 -2.1
v 0.9 0 -2.1
v 0.9 1.8 -2.1
v -0.7 0 -1.4
v 0.8 0 -1.4
v -0.8 0 -1.5
v -0.7 0 -1.5
v 0.8 0 -1.5
v 0.9 0 -1.5
v -0.8 0 -2.1
v 0.9 0 -2.1
v -0.4 1.2 -1.6
v -0.3 1.2 -1.6
v 0.4 1.2 -1.6
v 0.5 1.2 -1.6
v -0.4 1.2 -1.7
v -0.3 1.2 -1.7
v 0.4 1.2 -1.7
v 0.5 1.2 -1.7
v -0.5 1.3 -1.4
v -0.2 1.3 -1.4
v 0.3 1.3 -1.4
v 0.6 1.3 -1.4
v -0.5 1.3 -1.6
v -0.2 1.3 -1.6
v 0.3 1.3 -1.6
v 0.6 1.3 -1.6
v -0.5 0.4 -1.4
v -0.2 0.4 -1.4
v 0.3 0.4 -1.4
v 0.6 0.4 -1.4
v -0.5 0.4 -1.6
v -0.2 0.4 -1.6
v 0.3 0.4 -1.6
v 0.6 0.4 -1.6
v -0.4 0.5 -1.6
v -0.3 0.5 -1.6
v 0.4 0.5 -1.6
v 0.5 0.5 -1.6
v -0.4 0.5 -1.7
v -0.3 0.5 -1.7
v 0.4 0.5 -1.7
v 0.5 0.5 -1.7
v -0.7 1.7 -1.4
v 0.8 1.7 -1.4
v -0.7 1.7 -1.5
v 0.8 1.7 -1.5
v -0.8 1.8 -1.5
v 0.9 1.8 -1.5
v -0.2 1.8 -1.9
v 0.3 1.8 -1.9
v -0.8 1.8 -2.1
v -0.2 1.8 -2.1
v 0.3 1.8 -2.1
v 0.9 1.8 -2.1
v -0.2 1.9 -1.9
v 0.3 1.9 -1.9
v -0.1 1.9 -2
v 5.96046e-08 1.9 -2
v 0.1 1.9 -2
v 0.2 1.9 -2
v -0.2 1.9 -2.1
v -0.1 1.9 -2.1
v 0.2 1.9 -2.1
v 0.3 1.9 -2.1
v -0.1 4.1 -2
v 5.96046e-08 4.1 -2
v 0.1 4.1 -2
v 0.2 4.1 -2
v -0.1 4.1 -2.1
v 5.96046e-08 4.1 -2.1
v 0.1 4.1 -2.1
v 0.2 4.1 -2.1

# faces
f 3/4/1 2/4/1 1/4/1
f 4/4/1 2/4/1 3/4/1
f 7/4/1 6/4/1 5/4/1
f 8/4/1 6/4/1 7/4/1
f 11/4/1 10/4/1 9/4/1
f 12/4/1 10/4/1 11/4/1
f 15/4/1 14/4/1 13/4/1
f 16/4/1 14/4/1 15/4/1
f 19/4/1 18/4/1 17/4/1
f 20/4/1 18/4/1 19/4/1
f 23/3/1 22/3/1 21/3/1
f 24/3/1 22/3/1 23/3/1
f 27/4/1 26/4/1 25/4/1
f 28/4/1 26/4/1 27/4/1
f 31/4/1 30/4/1 29/4/1
f 32/4/1 30/4/1 31/4/1
f 33/4/2 34/4/2 35/4/2
f 35/4/2 34/4/2 36/4/2
f 37/4/2 38/4/2 39/4/2
f 39/4/2 38/4/2 40/4/2
f 41/2/2 42/2/2 43/2/2
f 43/2/2 42/2/2 44/2/2
f 45/4/2 46/4/2 47/4/2
f 47/4/2 46/4/2 48/4/2
f 49/4/2 50/4/2 51/4/2
f 51/4/2 50/4/2 52/4/2
f 53/4/2 54/4/2 55/4/2
f 55/4/2 54/4/2 56/4/2
f 57/4/2 58/4/2 59/4/2
f 59/4/2 58/4/2 60/4/2
f 61/4/2 62/4/2 63/4/2
f 63/4/2 62/4/2 64/4/2
f 67/4/3 66/4/3 65/4/3
f 68/4/3 66/4/3 67/4/3
f 69/4/3 67/4/3 65/4/3
f 70/4/3 66/4/3 68/4/3
f 71/4/3 69/4/3 65/4/3
f 71/4/3 70/4/3 69/4/3
f 72/4/3 66/4/3 70/4/3
f 72/4/3 70/4/3 71/4/3
f 73/4/3 71/4/3 65/4/3
f 74/4/3 66/4/3 72/4/3
f 75/4/3 73/4/3 65/4/3
f 75/4/3 74/4/3 73/4/3
f 76/4/3 66/4/3 74/4/3
f 76/4/3 74/4/3 75/4/3
f 79/4/3 78/4/3 77/4/3
f 80/4/3 78/4/3 79/4/3
f 82/4/3 78/4/3 80/4/3
f 83/4/3 82/4/3 81/4/3
f 84/4/3 78/4/3 82/4/3
f 84/4/3 82/4/3 83/4/3
f 87/4/3 86/4/3 85/4/3
f 88/4/3 86/4/3 87/4/3
f 89/4/3 87/4/3 85/4/3
f 90/4/3 86/4/3 88/4/3
f 91/4/3 89/4/3 85/4/3
f 91/4/3 90/4/3 89/4/3
f 92/4/3 86/4/3 90/4/3
f 92/4/3 90/4/3 91/4/3
f 95/4/3 94/4/3 93/4/3
f 96/4/3 94/4/3 95/4/3
f 97/4/3 95/4/3 93/4/3
f 98/4/3 94/4/3 96/4/3
f 99/4/3 97/4/3 93/4/3
f 99/4/3 98/4/3 97/4/3
f 100/4/3 94/4/3 98/4/3
f 100/4/3 98/4/3 99/4/3
f 103/4/3 102/4/3 101/4/3
f 104/4/3 102/4/3 103/4/3
f 107/4/3 106/4/3 105/4/3
f 108/4/3 106/4/3 107/4/3
f 111/4/3 110/4/3 109/4/3
f 112/4/3 110/4/3 111/4/3
f 115/3/3 114/3/3 113/3/3
f 116/3/3 114/3/3 115/3/3
f 117/1/3 116/1/3 115/1/3
f 118/1/3 116/1/3 117/1/3
f 119/2/3 118/2/3 117/2/3
f 120/2/3 118/2/3 119/2/3
f 121/4/4 122/4/4 123/4/4
f 123/4/4 124/4/4 125/4/4
f 123/4/4 125/4/4 127/4/4
f 125/3/4 126/3/4 127/3/4
f 127/3/4 126/3/4 128/3/4
f 123/4/4 127/4/4 129/4/4
f 127/1/4 128/1/4 129/1/4
f 129/1/4 128/1/4 130/1/4
f 123/4/4 129/4/4 131/4/4
f 129/2/4 130/2/4 131/2/4
f 131/2/4 130/2/4 132/2/4
f 121/4/4 123/4/4 133/4/4
f 123/4/4 131/4/4 133/4/4
f 133/4/4 131/4/4 134/4/4
f 121/4/4 133/4/4 135/4/4
f 135/4/4 133/4/4 136/4/4
f 140/4/5 138/4/5 137/4/5
f 141/4/5 138/4/5 140/4/5
f 143/4/5 140/4/5 139/4/5
f 143/4/5 142/4/5 141/4/5
f 143/4/5 141/4/5 140/4/5
f 144/4/5 142/4/5 143/4/5
f 149/4/5 146/4/5 145/4/5
f 150/4/5 146/4/5 149/4/5
f 151/4/5 148/4/5 147/4/5
f 152/4/5 148/4/5 151/4/5
f 157/4/5 154/4/5 153/4/5
f 158/4/5 154/4/5 157/4/5
f 159/4/5 156/4/5 155/4/5
f 160/4/5 156/4/5 159/4/5
f 161/4/6 162/4/6 165/4/6
f 165/4/6 162/4/6 166/4/6
f 163/4/6 164/4/6 167/4/6
f 167/4/6 164/4/6 168/4/6
f 169/4/6 170/4/6 173/4/6
f 173/4/6 170/4/6 174/4/6
f 171/4/6 172/4/6 175/4/6
f 175/4/6 172/4/6 176/4/6
f 177/4/6 178/4/6 179/4/6
f 179/4/6 178/4/6 180/4/6
f 181/4/6 182/4/6 183/4/6
f 183/4/6 182/4/6 184/4/6
f 181/4/6 183/4/6 185/4/6
f 185/4/6 183/4/6 186/4/6
f 184/4/6 182/4/6 187/4/6
f 187/4/6 182/4/6 188/4/6
f 189/4/6 190/4/6 191/4/6
f 191/4/6 190/4/6 192/4/6
f 192/4/6 190/4/6 193/4/6
f 193/4/6 190/4/6 194/4/6
f 189/4/6 191/4/6 195/4/6
f 195/4/6 191/4/6 196/4/6
f 194/4/6 190/4/6 197/4/6
f 197/4/6 190/4/6 198/4/6
f 199/3/6 200/3/6 203/3/6
f 200/1/6 201/1/6 204/1/6
f 203/3/6 200/3/6 204/3/6
f 201/2/6 202/2/6 205/2/6
f 204/1/6 201/1/6 205/1/6
f 205/2/6 202/2/6 206/2/6
